<svg xmlns="http://www.w3.org/2000/svg" xmlns:xlink="http://www.w3.org/1999/xlink" contentStyleType="text/css" data-diagram-type="DESCRIPTION" height="160px" preserveAspectRatio="none" style="width:1958px;height:160px;background:#1B1B1B;" version="1.1" viewBox="0 0 1958 160" width="1958px" zoomAndPan="magnify"><?plantuml 1.2026.4beta2?><defs/><g><rect fill="#1B1B1B" height="160" style="stroke:none;stroke-width:1;" width="1958" x="0" y="0"/><g class="title" data-source-line="1"><text fill="#FFFFFF" font-family="sans-serif" font-size="14" font-weight="700" lengthAdjust="spacing" textLength="150.6982" x="900.254" y="22.9951">Data Flow Diagram</text></g><!--entity user--><g class="entity" data-qualified-name="user" data-source-line="2" id="ent0002"><rect fill="#313139" height="36.2969" rx="2.5" ry="2.5" style="stroke:#E7E7E7;stroke-width:0.5;" width="123.0996" x="7" y="100.9869"/><text fill="#FFFFFF" font-family="sans-serif" font-size="14" lengthAdjust="spacing" textLength="103.0996" x="17" y="123.982">&#1055;&#1086;&#1083;&#1100;&#1079;&#1086;&#1074;&#1072;&#1090;&#1077;&#1083;&#1100;</text></g><!--entity fsm--><g class="entity" data-qualified-name="fsm" data-source-line="3" id="ent0003"><rect fill="#313139" height="36.2969" rx="2.5" ry="2.5" style="stroke:#E7E7E7;stroke-width:0.5;" width="111.3623" x="284.87" y="100.9869"/><text fill="#FFFFFF" font-family="sans-serif" font-size="14" lengthAdjust="spacing" textLength="91.3623" x="294.87" y="123.982">aiogram FSM</text></g><!--entity agent--><g class="entity" data-qualified-name="agent" data-source-line="4" id="ent0004"><rect fill="#313139" height="36.2969" rx="2.5" ry="2.5" style="stroke:#E7E7E7;stroke-width:0.5;" width="93.5684" x="759.77" y="100.9869"/><text fill="#FFFFFF" font-family="sans-serif" font-size="14" lengthAdjust="spacing" textLength="73.5684" x="769.77" y="123.982">LLM Agent</text></g><!--entity mistral--><g class="entity" data-qualified-name="mistral" data-source-line="5" id="ent0005"><rect fill="#313139" height="36.2969" rx="2.5" ry="2.5" style="stroke:#E7E7E7;stroke-width:0.5;" width="93.5752" x="1591.76" y="100.9869"/><text fill="#FFFFFF" font-family="sans-serif" font-size="14" lengthAdjust="spacing" textLength="73.5752" x="1601.76" y="123.982">Mistral API</text></g><!--entity ddg--><g class="entity" data-qualified-name="ddg" data-source-line="6" id="ent0006"><rect fill="#313139" height="36.2969" rx="2.5" ry="2.5" style="stroke:#E7E7E7;stroke-width:0.5;" width="110.3301" x="1446.38" y="100.9869"/><text fill="#FFFFFF" font-family="sans-serif" font-size="14" lengthAdjust="spacing" textLength="90.3301" x="1456.38" y="123.982">DuckDuckGo</text></g><!--entity db--><g class="entity" data-qualified-name="db" data-source-line="7" id="ent0007"><rect fill="#313139" height="36.2969" rx="2.5" ry="2.5" style="stroke:#E7E7E7;stroke-width:0.5;" width="90.5332" x="1321.28" y="100.9869"/><text fill="#FFFFFF" font-family="sans-serif" font-size="14" lengthAdjust="spacing" textLength="70.5332" x="1331.28" y="123.982">SQLite DB</text></g><g class="entity" data-qualified-name="GMN19" data-source-line="22" id="ent0020"><path d="M1719.9,99.0069 L1719.9,139.2725 L1943.2062,139.2725 L1943.2062,109.0069 L1933.2062,99.0069 L1719.9,99.0069" fill="#714137" style="stroke:#E7E7E7;stroke-width:0.5;"/><path d="M1933.2062,99.0069 L1933.2062,109.0069 L1943.2062,109.0069 L1933.2062,99.0069" fill="#714137" style="stroke:#E7E7E7;stroke-width:1;"/><text fill="#FFFFFF" font-family="sans-serif" font-size="13" lengthAdjust="spacing" textLength="164.0171" x="1725.9" y="116.0738">&#1042;&#1089;&#1077; &#1074;&#1099;&#1079;&#1086;&#1074;&#1099; &#1083;&#1086;&#1075;&#1080;&#1088;&#1091;&#1102;&#1090;&#1089;&#1103;</text><text fill="#FFFFFF" font-family="sans-serif" font-size="13" lengthAdjust="spacing" textLength="202.3062" x="1725.9" y="131.2066">(&#1079;&#1072;&#1087;&#1088;&#1086;&#1089;&#1099;, &#1086;&#1096;&#1080;&#1073;&#1082;&#1080;, &#1090;&#1072;&#1081;&#1084;&#1080;&#1085;&#1075;&#1080;)</text></g><!--link user to fsm--><g class="link" data-entity-1="ent0002" data-entity-2="ent0003" data-link-type="dependency" data-source-line="9" id="lnk8"><path d="M130.27,119.1369 C176.67,119.1369 233.7,119.1369 278.62,119.1369" fill="none" id="user-to-fsm" style="stroke:#E7E7E7;stroke-width:1;"/><polygon fill="#E7E7E7" points="284.62,119.1369,275.62,115.1369,279.62,119.1369,275.62,123.1369,284.62,119.1369" style="stroke:#E7E7E7;stroke-width:1;"/><text fill="#FFFFFF" font-family="sans-serif" font-size="13" lengthAdjust="spacing" textLength="118.3584" x="148.48" y="112.2038">&#1090;&#1077;&#1082;&#1089;&#1090; &#1089;&#1086;&#1086;&#1073;&#1097;&#1077;&#1085;&#1080;&#1103;</text></g><!--link fsm to user--><g class="link" data-entity-1="ent0003" data-entity-2="ent0002" data-link-type="dependency" data-source-line="17" id="lnk16"><path d="M284.68,135.8069 C278.42,137.1769 272.1,138.3369 265.98,139.1369 C214.43,145.9369 200.6,145.4569 148.98,139.1369 C142.84,138.3869 142.3756,138.4928 136.0656,137.2428" fill="none" id="fsm-to-user" style="stroke:#E7E7E7;stroke-width:1;"/><polygon fill="#E7E7E7" points="130.18,136.0769,138.2312,141.7495,135.0847,137.0485,139.7857,133.902,130.18,136.0769" style="stroke:#E7E7E7;stroke-width:1;"/><text fill="#FFFFFF" font-family="sans-serif" font-size="13" lengthAdjust="spacing" textLength="115.229" x="149.98" y="135.2038">&#1089;&#1086;&#1086;&#1073;&#1097;&#1077;&#1085;&#1080;&#1103; &#1074; &#1095;&#1072;&#1090;</text></g><!--link fsm to agent--><g class="link" data-entity-1="ent0003" data-entity-2="ent0004" data-link-type="dependency" data-source-line="10" id="lnk9"><path d="M396.3,119.1369 C488.95,119.1369 666.97,119.1369 753.5,119.1369" fill="none" id="fsm-to-agent" style="stroke:#E7E7E7;stroke-width:1;"/><polygon fill="#E7E7E7" points="759.5,119.1369,750.5,115.1369,754.5,119.1369,750.5,123.1369,759.5,119.1369" style="stroke:#E7E7E7;stroke-width:1;"/><text fill="#FFFFFF" font-family="sans-serif" font-size="13" lengthAdjust="spacing" textLength="327.5962" x="414.5" y="112.2038">&#1087;&#1072;&#1088;&#1072;&#1084;&#1077;&#1090;&#1088;&#1099; (destination, dates, budget, interests)</text></g><!--link agent to fsm--><g class="link" data-entity-1="ent0004" data-entity-2="ent0003" data-link-type="dependency" data-source-line="16" id="lnk15"><path d="M759.52,125.7369 C722.82,130.5369 670.53,136.6169 624.5,139.1369 C545.3,143.4769 459.7519,135.2748 402.5019,127.9848" fill="none" id="agent-to-fsm" style="stroke:#E7E7E7;stroke-width:1;"/><polygon fill="#E7E7E7" points="396.55,127.2269,404.9726,132.3317,401.51,127.8585,405.9832,124.3958,396.55,127.2269" style="stroke:#E7E7E7;stroke-width:1;"/><text fill="#FFFFFF" font-family="sans-serif" font-size="13" lengthAdjust="spacing" textLength="91.1777" x="532.5" y="135.2038">&#1086;&#1090;&#1074;&#1077;&#1090; (&#1090;&#1077;&#1082;&#1089;&#1090;)</text></g><!--link agent to mistral--><g class="link" data-entity-1="ent0004" data-entity-2="ent0005" data-link-type="dependency" data-source-line="11" id="lnk10"><path d="M853.64,113.7169 C963.01,101.4469 1242.76,71.7969 1477.55,61.7769 C1524.62,59.7669 1540.22,43.2969 1583.55,61.7769 C1601.95,69.6269 1613.6578,82.1079 1623.3778,95.6879" fill="none" id="agent-to-mistral" style="stroke:#E7E7E7;stroke-width:1;"/><polygon fill="#E7E7E7" points="1626.87,100.5669,1624.8844,90.9203,1623.9598,96.501,1618.3791,95.5765,1626.87,100.5669" style="stroke:#E7E7E7;stroke-width:1;"/><text fill="#FFFFFF" font-family="sans-serif" font-size="13" lengthAdjust="spacing" textLength="104.8506" x="1478.55" y="65.0738">messages, tools</text></g><!--link mistral to agent--><g class="link" data-entity-1="ent0005" data-entity-2="ent0004" data-link-type="dependency" data-source-line="12" id="lnk11"><path d="M1626.87,100.5669 C1617.15,86.9869 1601.95,69.6269 1583.55,61.7769 C1540.22,43.2969 1524.62,59.7669 1477.55,61.7769 C1242.76,71.7969 968.9726,100.7779 859.6026,113.0479" fill="none" id="mistral-to-agent" style="stroke:#E7E7E7;stroke-width:1;"/><polygon fill="#E7E7E7" points="853.64,113.7169,863.0298,116.6885,858.6088,113.1594,862.1379,108.7384,853.64,113.7169" style="stroke:#E7E7E7;stroke-width:1;"/><text fill="#FFFFFF" font-family="sans-serif" font-size="13" lengthAdjust="spacing" textLength="143.5269" x="1459.05" y="65.0738">&#1086;&#1090;&#1074;&#1077;&#1090; (text/tool_calls)</text></g><!--link agent to ddg--><g class="link" data-entity-1="ent0004" data-entity-2="ent0006" data-link-type="dependency" data-source-line="13" id="lnk12"><path d="M818.37,100.5669 C828.2,86.9769 843.55,69.6169 862.05,61.7769 C888.03,50.7669 960.85,60.5869 989.05,61.7769 C1185.35,70.0569 1236.2,64.1269 1429.55,99.0069 C1434.91,99.9769 1434.6251,99.769 1440.1351,101.089" fill="none" id="agent-to-ddg" style="stroke:#E7E7E7;stroke-width:1;"/><polygon fill="#E7E7E7" points="1445.97,102.4869,1438.1495,96.5002,1441.1076,101.322,1436.2858,104.2801,1445.97,102.4869" style="stroke:#E7E7E7;stroke-width:1;"/><text fill="#FFFFFF" font-family="sans-serif" font-size="13" lengthAdjust="spacing" textLength="125.0933" x="863.05" y="65.0738">&#1087;&#1086;&#1080;&#1089;&#1082;&#1086;&#1074;&#1099;&#1081; &#1079;&#1072;&#1087;&#1088;&#1086;&#1089;</text></g><!--link ddg to agent--><g class="link" data-entity-1="ent0006" data-entity-2="ent0004" data-link-type="dependency" data-source-line="14" id="lnk13"><path d="M1445.97,102.4869 C1440.46,101.1669 1434.91,99.9769 1429.55,99.0069 C1236.2,64.1269 1185.35,70.0569 989.05,61.7769 C960.85,60.5869 888.03,50.7669 862.05,61.7769 C843.55,69.6169 831.7165,82.1153 821.8865,95.7053" fill="none" id="ddg-to-agent" style="stroke:#E7E7E7;stroke-width:1;"/><polygon fill="#E7E7E7" points="818.37,100.5669,826.8857,95.6189,821.3004,96.5156,820.4037,90.9303,818.37,100.5669" style="stroke:#E7E7E7;stroke-width:1;"/><text fill="#FFFFFF" font-family="sans-serif" font-size="13" lengthAdjust="spacing" textLength="207.6382" x="822.05" y="65.0738">&#1088;&#1077;&#1079;&#1091;&#1083;&#1100;&#1090;&#1072;&#1090;&#1099; (title, link, snippet)</text></g><!--link agent to agent--><g class="link" data-entity-1="ent0004" data-entity-2="ent0004" data-link-type="dependency" data-source-line="15" id="lnk14"><path d="M853.61,112.3769 C872.49,111.9969 888.33,114.2469 888.33,119.1369 C888.33,124.0269 878.4888,126.4076 859.6088,126.0276" fill="none" id="agent-to-agent" style="stroke:#E7E7E7;stroke-width:1;"/><polygon fill="#E7E7E7" points="853.61,125.9069,862.5277,130.0872,858.609,126.0075,862.6887,122.0888,853.61,125.9069" style="stroke:#E7E7E7;stroke-width:1;"/><text fill="#FFFFFF" font-family="sans-serif" font-size="13" lengthAdjust="spacing" textLength="185.415" x="894.33" y="123.7038">&#1089;&#1073;&#1086;&#1088;&#1082;&#1072; &#1092;&#1080;&#1085;&#1072;&#1083;&#1100;&#1085;&#1086;&#1075;&#1086; &#1086;&#1090;&#1074;&#1077;&#1090;&#1072;</text></g><!--link agent to db--><g class="link" data-entity-1="ent0004" data-entity-2="ent0007" data-link-type="dependency" data-source-line="18" id="lnk17"><path d="M853.81,119.1369 C959.95,119.1369 1210.08,119.1369 1314.79,119.1369" fill="none" id="agent-to-db" style="stroke:#E7E7E7;stroke-width:1;"/><polygon fill="#E7E7E7" points="1320.79,119.1369,1311.79,115.1369,1315.79,119.1369,1311.79,123.1369,1320.79,119.1369" style="stroke:#E7E7E7;stroke-width:1;"/><text fill="#FFFFFF" font-family="sans-serif" font-size="13" lengthAdjust="spacing" textLength="216.9629" x="979.31" y="112.2038">&#1089;&#1086;&#1093;&#1088;&#1072;&#1085;&#1077;&#1085;&#1080;&#1077; &#1087;&#1083;&#1072;&#1085;&#1072; (SQL INSERT)</text></g><!--link db to agent--><g class="link" data-entity-1="ent0007" data-entity-2="ent0004" data-link-type="dependency" data-source-line="19" id="lnk18"><path d="M1320.88,124.4369 C1275.82,129.3769 1204.92,136.3869 1143.31,139.1369 C1093.58,141.3669 1081.04,141.3469 1031.31,139.1369 C969.86,136.4069 905.215,130.1542 859.785,125.2242" fill="none" id="db-to-agent" style="stroke:#E7E7E7;stroke-width:1;"/><polygon fill="#E7E7E7" points="853.82,124.5769,862.3359,129.5245,858.7908,125.1163,863.199,121.5712,853.82,124.5769" style="stroke:#E7E7E7;stroke-width:1;"/><text fill="#FFFFFF" font-family="sans-serif" font-size="13" lengthAdjust="spacing" textLength="110.5698" x="1032.31" y="135.2038">&#1087;&#1086;&#1076;&#1090;&#1074;&#1077;&#1088;&#1078;&#1076;&#1077;&#1085;&#1080;&#1077;</text></g><!--link agent to GMN19--><g class="link" data-entity-1="ent0004" data-entity-2="ent0020" data-link-type="association" data-source-line="22" id="lnk21"><path d="M853.42,112.0969 C985.03,93.4469 1369,46.6369 1685.05,84.0069 C1709.99,86.9569 1736.82,92.6369 1760.62,98.5769" fill="none" id="agent-GMN19" style="stroke:#E7E7E7;stroke-width:1;stroke-dasharray:7,7;"/></g><?plantuml-src RLB1RjD04BtlLunwIYGZxZaW5OMYIWc2fdUqYRTcLSUkl1krnpW50Ge2YH_W5vpGaBGbxY_C_X4pwqJTIXmispDlPjwyDrRRL45NMWb7QNu9NIsJGev5eKPMPWdb3l0NrdZllk6Qtakit0nN_7y0qi34g284IvrpFHmD-Zv_PfxqwlNwS9YepFgavAymtTV65ZA5mxV77Z1k_aD8Tp8wv-TrxX5nd8JPmRkUjhJFooOv5889mhCNJAG3dlgTAzqCN4dRrBXmNocqnOtx8GZ2IC-g0_X0gqwnmh-uSZCtTNDenSfOdKchyoo2M5fb8XXEuaJP27HcLK5vqnQ-0xVQyU_0M1b3KOBRF4-Ds2N2SJMHM_8eQ5brPPypyFr8fcdOaDRrp6eYNE8T6-BcU0laJOKFHBTsfI1Gq9Y2AroxQxQCHf1zl8bbtoD8TNOUWSdqnOMomPnzROaBQZcbIHMuZxWXfIf_2riQ_HlhW3PMZ-LUx72ZH-7RUvdPcCv_R01SWllCF8ErXmtIVVAER1iihbYAUn-ee4NUm_6RmQkJqxQ8Xq-ThF5cHsQAV_1cNoz4bjEv53hvO24_snqa0FwaQTITnLqt8WCDufKtT0dNxZkfMDB90BH2wTqyuhM_KEy5QRQ9-E8glAKROkcekYrK5WDF_GS0?></g></svg>