<svg xmlns="http://www.w3.org/2000/svg" xmlns:xlink="http://www.w3.org/1999/xlink" contentStyleType="text/css" data-diagram-type="ACTIVITY" height="1040px" preserveAspectRatio="none" style="width:786px;height:1040px;background:#1B1B1B;" version="1.1" viewBox="0 0 786 1040" width="786px" zoomAndPan="magnify"><?plantuml 1.2026.4beta2?><defs/><g><rect fill="#1B1B1B" height="1040" style="stroke:none;stroke-width:1;" width="786" x="0" y="0"/><rect fill="none" height="20.9531" style="stroke:none;stroke-width:1;" width="739.0679" x="20" y="17.7451"/><ellipse cx="116.4258" cy="53.6982" fill="#DDDDDD" rx="10" ry="10" style="stroke:#DDDDDD;stroke-width:1;"/><rect fill="#313139" height="33.9688" rx="12.5" ry="12.5" style="stroke:#E7E7E7;stroke-width:0.5;" width="131.3926" x="50.7295" y="83.6982"/><text fill="#FFFFFF" font-family="sans-serif" font-size="12" lengthAdjust="spacing" textLength="111.3926" x="60.7295" y="104.8369">&#1054;&#1090;&#1087;&#1088;&#1072;&#1074;&#1083;&#1103;&#1077;&#1090; /start</text><rect fill="#313139" height="33.9688" rx="12.5" ry="12.5" style="stroke:#E7E7E7;stroke-width:0.5;" width="180.8516" x="26" y="191.6357"/><text fill="#FFFFFF" font-family="sans-serif" font-size="12" lengthAdjust="spacing" textLength="160.8516" x="36" y="212.7744">&#1042;&#1074;&#1086;&#1076;&#1080;&#1090; &#1075;&#1086;&#1088;&#1086;&#1076; &#1080;&#1083;&#1080; &#1089;&#1090;&#1088;&#1072;&#1085;&#1091;</text><rect fill="#313139" height="33.9688" rx="12.5" ry="12.5" style="stroke:#E7E7E7;stroke-width:0.5;" width="101.6621" x="65.5947" y="299.5732"/><text fill="#FFFFFF" font-family="sans-serif" font-size="12" lengthAdjust="spacing" textLength="81.6621" x="75.5947" y="320.7119">&#1042;&#1074;&#1086;&#1076;&#1080;&#1090; &#1076;&#1072;&#1090;&#1099;</text><rect fill="#313139" height="33.9688" rx="12.5" ry="12.5" style="stroke:#E7E7E7;stroke-width:0.5;" width="137.0469" x="47.9023" y="407.5107"/><text fill="#FFFFFF" font-family="sans-serif" font-size="12" lengthAdjust="spacing" textLength="117.0469" x="57.9023" y="428.6494">&#1042;&#1099;&#1073;&#1080;&#1088;&#1072;&#1077;&#1090; &#1073;&#1102;&#1076;&#1078;&#1077;&#1090;</text><rect fill="#313139" height="33.9688" rx="12.5" ry="12.5" style="stroke:#E7E7E7;stroke-width:0.5;" width="130.6367" x="51.1074" y="515.4482"/><text fill="#FFFFFF" font-family="sans-serif" font-size="12" lengthAdjust="spacing" textLength="110.6367" x="61.1074" y="536.5869">&#1042;&#1074;&#1086;&#1076;&#1080;&#1090; &#1080;&#1085;&#1090;&#1077;&#1088;&#1077;&#1089;&#1099;</text><line style="stroke:#FFFFFF;stroke-width:1.5;" x1="20" x2="20" y1="17.7451" y2="1019.167"/><rect fill="#313139" height="33.9688" rx="12.5" ry="12.5" style="stroke:#E7E7E7;stroke-width:0.5;" width="192.4238" x="293.5894" y="137.667"/><text fill="#FFFFFF" font-family="sans-serif" font-size="12" lengthAdjust="spacing" textLength="172.4238" x="303.5894" y="158.8057">&#1047;&#1072;&#1087;&#1088;&#1072;&#1096;&#1080;&#1074;&#1072;&#1077;&#1090; &#1085;&#1072;&#1087;&#1088;&#1072;&#1074;&#1083;&#1077;&#1085;&#1080;&#1077;</text><rect fill="#313139" height="33.9688" rx="12.5" ry="12.5" style="stroke:#E7E7E7;stroke-width:0.5;" width="141.3711" x="319.1157" y="245.6045"/><text fill="#FFFFFF" font-family="sans-serif" font-size="12" lengthAdjust="spacing" textLength="121.3711" x="329.1157" y="266.7432">&#1047;&#1072;&#1087;&#1088;&#1072;&#1096;&#1080;&#1074;&#1072;&#1077;&#1090; &#1076;&#1072;&#1090;&#1099;</text><rect fill="#313139" height="33.9688" rx="12.5" ry="12.5" style="stroke:#E7E7E7;stroke-width:0.5;" width="206.668" x="286.4673" y="353.542"/><text fill="#FFFFFF" font-family="sans-serif" font-size="12" lengthAdjust="spacing" textLength="186.668" x="296.4673" y="374.6807">&#1055;&#1088;&#1077;&#1076;&#1083;&#1072;&#1075;&#1072;&#1077;&#1090; &#1082;&#1085;&#1086;&#1087;&#1082;&#1080; &#1073;&#1102;&#1076;&#1078;&#1077;&#1090;&#1072;</text><rect fill="#313139" height="33.9688" rx="12.5" ry="12.5" style="stroke:#E7E7E7;stroke-width:0.5;" width="170.3457" x="304.6284" y="461.4795"/><text fill="#FFFFFF" font-family="sans-serif" font-size="12" lengthAdjust="spacing" textLength="150.3457" x="314.6284" y="482.6182">&#1047;&#1072;&#1087;&#1088;&#1072;&#1096;&#1080;&#1074;&#1072;&#1077;&#1090; &#1080;&#1085;&#1090;&#1077;&#1088;&#1077;&#1089;&#1099;</text><rect fill="#313139" height="33.9688" rx="12.5" ry="12.5" style="stroke:#E7E7E7;stroke-width:0.5;" width="196.2793" x="291.6616" y="569.417"/><text fill="#FFFFFF" font-family="sans-serif" font-size="12" lengthAdjust="spacing" textLength="176.2793" x="301.6616" y="590.5557">&#1060;&#1086;&#1088;&#1084;&#1080;&#1088;&#1091;&#1077;&#1090; &#1087;&#1088;&#1086;&#1084;&#1087;&#1090; &#1076;&#1083;&#1103; LLM</text><rect fill="#313139" height="33.9688" rx="12.5" ry="12.5" style="stroke:#E7E7E7;stroke-width:0.5;" width="183.2188" x="298.1919" y="745.292"/><text fill="#FFFFFF" font-family="sans-serif" font-size="12" lengthAdjust="spacing" textLength="163.2188" x="308.1919" y="766.4307">&#1056;&#1072;&#1079;&#1073;&#1080;&#1074;&#1072;&#1077;&#1090; &#1086;&#1090;&#1074;&#1077;&#1090; &#1085;&#1072; &#1095;&#1072;&#1089;&#1090;&#1080;</text><rect fill="#313139" height="33.9688" rx="12.5" ry="12.5" style="stroke:#E7E7E7;stroke-width:0.5;" width="229.2676" x="275.1675" y="799.2607"/><text fill="#FFFFFF" font-family="sans-serif" font-size="12" lengthAdjust="spacing" textLength="209.2676" x="285.1675" y="820.3994">&#1054;&#1090;&#1087;&#1088;&#1072;&#1074;&#1083;&#1103;&#1077;&#1090; &#1095;&#1072;&#1089;&#1090;&#1080; &#1087;&#1086;&#1083;&#1100;&#1079;&#1086;&#1074;&#1072;&#1090;&#1077;&#1083;&#1102;</text><polygon fill="#313139" points="349.9773,853.2295,429.6252,853.2295,441.6252,865.2295,429.6252,877.2295,349.9773,877.2295,337.9773,865.2295,349.9773,853.2295" style="stroke:#E7E7E7;stroke-width:0.5;"/><text fill="#FFFFFF" font-family="sans-serif" font-size="11" lengthAdjust="spacing" textLength="79.6479" x="349.9773" y="869.0376">&#1058;&#1072;&#1081;&#1084;&#1072;&#1091;&#1090; LLM?</text><text fill="#FFFFFF" font-family="sans-serif" font-size="11" lengthAdjust="spacing" textLength="14.3462" x="323.6311" y="862.6353">&#1076;&#1072;</text><text fill="#FFFFFF" font-family="sans-serif" font-size="11" lengthAdjust="spacing" textLength="20.3672" x="441.6252" y="862.6353">&#1085;&#1077;&#1090;</text><rect fill="#313139" height="47.9375" rx="12.5" ry="12.5" style="stroke:#E7E7E7;stroke-width:0.5;" width="162.6992" x="216.8516" y="887.2295"/><text fill="#FFFFFF" font-family="sans-serif" font-size="12" lengthAdjust="spacing" textLength="142.6992" x="226.8516" y="908.3682">&#1057;&#1086;&#1086;&#1073;&#1097;&#1077;&#1085;&#1080;&#1077; &#1086;&#1073; &#1086;&#1096;&#1080;&#1073;&#1082;&#1077;</text><text fill="#FFFFFF" font-family="sans-serif" font-size="12" lengthAdjust="spacing" textLength="134.1035" x="226.8516" y="922.3369">&#171;&#1055;&#1086;&#1087;&#1088;&#1086;&#1073;&#1091;&#1081;&#1090;&#1077; &#1087;&#1086;&#1079;&#1078;&#1077;&#187;</text><ellipse cx="298.2012" cy="966.167" fill="none" rx="11" ry="11" style="stroke:#DDDDDD;stroke-width:1;"/><ellipse cx="298.2012" cy="966.167" fill="#DDDDDD" rx="6" ry="6" style="stroke:#DDDDDD;stroke-width:1;"/><rect fill="#313139" height="33.9688" rx="12.5" ry="12.5" style="stroke:#E7E7E7;stroke-width:0.5;" width="163.7012" x="399.5508" y="887.2295"/><text fill="#FFFFFF" font-family="sans-serif" font-size="12" lengthAdjust="spacing" textLength="143.7012" x="409.5508" y="908.3682">&#1059;&#1089;&#1087;&#1077;&#1096;&#1085;&#1086;&#1077; &#1079;&#1072;&#1074;&#1077;&#1088;&#1096;&#1077;&#1085;&#1080;&#1077;</text><ellipse cx="389.8013" cy="1008.167" fill="none" rx="11" ry="11" style="stroke:#DDDDDD;stroke-width:1;"/><ellipse cx="389.8013" cy="1008.167" fill="#DDDDDD" rx="6" ry="6" style="stroke:#DDDDDD;stroke-width:1;"/><line style="stroke:#FFFFFF;stroke-width:1.5;" x1="210.8516" x2="210.8516" y1="17.7451" y2="1019.167"/><rect fill="#313139" height="47.9375" rx="12.5" ry="12.5" style="stroke:#E7E7E7;stroke-width:0.5;" width="179.9551" x="573.252" y="623.3857"/><text fill="#FFFFFF" font-family="sans-serif" font-size="12" lengthAdjust="spacing" textLength="159.9551" x="583.252" y="644.5244">&#1042;&#1099;&#1079;&#1099;&#1074;&#1072;&#1077;&#1090; search_internet</text><text fill="#FFFFFF" font-family="sans-serif" font-size="12" lengthAdjust="spacing" textLength="134.7305" x="583.252" y="658.4932">(&#1087;&#1088;&#1080; &#1085;&#1077;&#1086;&#1073;&#1093;&#1086;&#1076;&#1080;&#1084;&#1086;&#1089;&#1090;&#1080;)</text><rect fill="#313139" height="33.9688" rx="12.5" ry="12.5" style="stroke:#E7E7E7;stroke-width:0.5;" width="128.9668" x="598.7461" y="691.3232"/><text fill="#FFFFFF" font-family="sans-serif" font-size="12" lengthAdjust="spacing" textLength="108.9668" x="608.7461" y="712.4619">&#1043;&#1077;&#1085;&#1077;&#1088;&#1080;&#1088;&#1091;&#1077;&#1090; &#1087;&#1083;&#1072;&#1085;</text><line style="stroke:#FFFFFF;stroke-width:1.5;" x1="567.252" x2="567.252" y1="17.7451" y2="1019.167"/><line style="stroke:#FFFFFF;stroke-width:1.5;" x1="757.207" x2="757.207" y1="17.7451" y2="1019.167"/><line style="stroke:#E7E7E7;stroke-width:1;" x1="116.4258" x2="116.4258" y1="63.6982" y2="83.6982"/><polygon fill="#E7E7E7" points="112.4258,73.6982,116.4258,83.6982,120.4258,73.6982,116.4258,77.6982" style="stroke:#E7E7E7;stroke-width:1;"/><line style="stroke:#E7E7E7;stroke-width:1;" x1="389.8013" x2="389.8013" y1="779.2607" y2="799.2607"/><polygon fill="#E7E7E7" points="385.8013,789.2607,389.8013,799.2607,393.8013,789.2607,389.8013,793.2607" style="stroke:#E7E7E7;stroke-width:1;"/><line style="stroke:#E7E7E7;stroke-width:1;" x1="298.2012" x2="298.2012" y1="935.167" y2="955.167"/><polygon fill="#E7E7E7" points="294.2012,945.167,298.2012,955.167,302.2012,945.167,298.2012,949.167" style="stroke:#E7E7E7;stroke-width:1;"/><line style="stroke:#E7E7E7;stroke-width:1;" x1="337.9773" x2="298.2012" y1="865.2295" y2="865.2295"/><line style="stroke:#E7E7E7;stroke-width:1;" x1="298.2012" x2="298.2012" y1="865.2295" y2="887.2295"/><polygon fill="#E7E7E7" points="294.2012,877.2295,298.2012,887.2295,302.2012,877.2295,298.2012,881.2295" style="stroke:#E7E7E7;stroke-width:1;"/><line style="stroke:#E7E7E7;stroke-width:1;" x1="441.6252" x2="481.4014" y1="865.2295" y2="865.2295"/><line style="stroke:#E7E7E7;stroke-width:1;" x1="481.4014" x2="481.4014" y1="865.2295" y2="887.2295"/><polygon fill="#E7E7E7" points="477.4014,877.2295,481.4014,887.2295,485.4014,877.2295,481.4014,881.2295" style="stroke:#E7E7E7;stroke-width:1;"/><line style="stroke:#E7E7E7;stroke-width:1;" x1="481.4014" x2="481.4014" y1="921.1982" y2="982.167"/><line style="stroke:#E7E7E7;stroke-width:1;" x1="481.4014" x2="389.8013" y1="982.167" y2="982.167"/><line style="stroke:#E7E7E7;stroke-width:1;" x1="389.8013" x2="389.8013" y1="982.167" y2="997.167"/><polygon fill="#E7E7E7" points="385.8013,987.167,389.8013,997.167,393.8013,987.167,389.8013,991.167" style="stroke:#E7E7E7;stroke-width:1;"/><line style="stroke:#E7E7E7;stroke-width:1;" x1="389.8013" x2="389.8013" y1="833.2295" y2="853.2295"/><polygon fill="#E7E7E7" points="385.8013,843.2295,389.8013,853.2295,393.8013,843.2295,389.8013,847.2295" style="stroke:#E7E7E7;stroke-width:1;"/><line style="stroke:#E7E7E7;stroke-width:1;" x1="663.2295" x2="663.2295" y1="671.3232" y2="691.3232"/><polygon fill="#E7E7E7" points="659.2295,681.3232,663.2295,691.3232,667.2295,681.3232,663.2295,685.3232" style="stroke:#E7E7E7;stroke-width:1;"/><line style="stroke:#E7E7E7;stroke-width:1;" x1="116.4258" x2="116.4258" y1="117.667" y2="122.667"/><line style="stroke:#E7E7E7;stroke-width:1;" x1="116.4258" x2="389.8013" y1="122.667" y2="122.667"/><line style="stroke:#E7E7E7;stroke-width:1;" x1="389.8013" x2="389.8013" y1="122.667" y2="137.667"/><polygon fill="#E7E7E7" points="385.8013,127.667,389.8013,137.667,393.8013,127.667,389.8013,131.667" style="stroke:#E7E7E7;stroke-width:1;"/><line style="stroke:#E7E7E7;stroke-width:1;" x1="389.8013" x2="389.8013" y1="171.6357" y2="176.6357"/><line style="stroke:#E7E7E7;stroke-width:1;" x1="389.8013" x2="116.4258" y1="176.6357" y2="176.6357"/><line style="stroke:#E7E7E7;stroke-width:1;" x1="116.4258" x2="116.4258" y1="176.6357" y2="191.6357"/><polygon fill="#E7E7E7" points="112.4258,181.6357,116.4258,191.6357,120.4258,181.6357,116.4258,185.6357" style="stroke:#E7E7E7;stroke-width:1;"/><line style="stroke:#E7E7E7;stroke-width:1;" x1="116.4258" x2="116.4258" y1="225.6045" y2="230.6045"/><line style="stroke:#E7E7E7;stroke-width:1;" x1="116.4258" x2="389.8013" y1="230.6045" y2="230.6045"/><line style="stroke:#E7E7E7;stroke-width:1;" x1="389.8013" x2="389.8013" y1="230.6045" y2="245.6045"/><polygon fill="#E7E7E7" points="385.8013,235.6045,389.8013,245.6045,393.8013,235.6045,389.8013,239.6045" style="stroke:#E7E7E7;stroke-width:1;"/><line style="stroke:#E7E7E7;stroke-width:1;" x1="389.8013" x2="389.8013" y1="279.5732" y2="284.5732"/><line style="stroke:#E7E7E7;stroke-width:1;" x1="389.8013" x2="116.4258" y1="284.5732" y2="284.5732"/><line style="stroke:#E7E7E7;stroke-width:1;" x1="116.4258" x2="116.4258" y1="284.5732" y2="299.5732"/><polygon fill="#E7E7E7" points="112.4258,289.5732,116.4258,299.5732,120.4258,289.5732,116.4258,293.5732" style="stroke:#E7E7E7;stroke-width:1;"/><line style="stroke:#E7E7E7;stroke-width:1;" x1="116.4258" x2="116.4258" y1="333.542" y2="338.542"/><line style="stroke:#E7E7E7;stroke-width:1;" x1="116.4258" x2="389.8013" y1="338.542" y2="338.542"/><line style="stroke:#E7E7E7;stroke-width:1;" x1="389.8013" x2="389.8013" y1="338.542" y2="353.542"/><polygon fill="#E7E7E7" points="385.8013,343.542,389.8013,353.542,393.8013,343.542,389.8013,347.542" style="stroke:#E7E7E7;stroke-width:1;"/><line style="stroke:#E7E7E7;stroke-width:1;" x1="389.8013" x2="389.8013" y1="387.5107" y2="392.5107"/><line style="stroke:#E7E7E7;stroke-width:1;" x1="389.8013" x2="116.4258" y1="392.5107" y2="392.5107"/><line style="stroke:#E7E7E7;stroke-width:1;" x1="116.4258" x2="116.4258" y1="392.5107" y2="407.5107"/><polygon fill="#E7E7E7" points="112.4258,397.5107,116.4258,407.5107,120.4258,397.5107,116.4258,401.5107" style="stroke:#E7E7E7;stroke-width:1;"/><line style="stroke:#E7E7E7;stroke-width:1;" x1="116.4258" x2="116.4258" y1="441.4795" y2="446.4795"/><line style="stroke:#E7E7E7;stroke-width:1;" x1="116.4258" x2="389.8013" y1="446.4795" y2="446.4795"/><line style="stroke:#E7E7E7;stroke-width:1;" x1="389.8013" x2="389.8013" y1="446.4795" y2="461.4795"/><polygon fill="#E7E7E7" points="385.8013,451.4795,389.8013,461.4795,393.8013,451.4795,389.8013,455.4795" style="stroke:#E7E7E7;stroke-width:1;"/><line style="stroke:#E7E7E7;stroke-width:1;" x1="389.8013" x2="389.8013" y1="495.4482" y2="500.4482"/><line style="stroke:#E7E7E7;stroke-width:1;" x1="389.8013" x2="116.4258" y1="500.4482" y2="500.4482"/><line style="stroke:#E7E7E7;stroke-width:1;" x1="116.4258" x2="116.4258" y1="500.4482" y2="515.4482"/><polygon fill="#E7E7E7" points="112.4258,505.4482,116.4258,515.4482,120.4258,505.4482,116.4258,509.4482" style="stroke:#E7E7E7;stroke-width:1;"/><line style="stroke:#E7E7E7;stroke-width:1;" x1="116.4258" x2="116.4258" y1="549.417" y2="554.417"/><line style="stroke:#E7E7E7;stroke-width:1;" x1="116.4258" x2="389.8013" y1="554.417" y2="554.417"/><line style="stroke:#E7E7E7;stroke-width:1;" x1="389.8013" x2="389.8013" y1="554.417" y2="569.417"/><polygon fill="#E7E7E7" points="385.8013,559.417,389.8013,569.417,393.8013,559.417,389.8013,563.417" style="stroke:#E7E7E7;stroke-width:1;"/><line style="stroke:#E7E7E7;stroke-width:1;" x1="389.8013" x2="389.8013" y1="603.3857" y2="608.3857"/><line style="stroke:#E7E7E7;stroke-width:1;" x1="389.8013" x2="663.2295" y1="608.3857" y2="608.3857"/><line style="stroke:#E7E7E7;stroke-width:1;" x1="663.2295" x2="663.2295" y1="608.3857" y2="623.3857"/><polygon fill="#E7E7E7" points="659.2295,613.3857,663.2295,623.3857,667.2295,613.3857,663.2295,617.3857" style="stroke:#E7E7E7;stroke-width:1;"/><line style="stroke:#E7E7E7;stroke-width:1;" x1="663.2295" x2="663.2295" y1="725.292" y2="730.292"/><line style="stroke:#E7E7E7;stroke-width:1;" x1="663.2295" x2="389.8013" y1="730.292" y2="730.292"/><line style="stroke:#E7E7E7;stroke-width:1;" x1="389.8013" x2="389.8013" y1="730.292" y2="745.292"/><polygon fill="#E7E7E7" points="385.8013,735.292,389.8013,745.292,393.8013,735.292,389.8013,739.292" style="stroke:#E7E7E7;stroke-width:1;"/><text fill="#FFFFFF" font-family="sans-serif" font-size="18" lengthAdjust="spacing" textLength="132.5566" x="49.1475" y="34.4531">&#1055;&#1086;&#1083;&#1100;&#1079;&#1086;&#1074;&#1072;&#1090;&#1077;&#1083;&#1100;</text><text fill="#FFFFFF" font-family="sans-serif" font-size="18" lengthAdjust="spacing" textLength="33.8467" x="372.1284" y="34.4531">&#1041;&#1086;&#1090;</text><text fill="#FFFFFF" font-family="sans-serif" font-size="18" lengthAdjust="spacing" textLength="115.752" x="604.3535" y="34.4531">LLM (Mistral)</text><?plantuml-src bLFBJi9G4DttA-wIhjpJXJy0Vq1YY9P0GggXNRA04gC6Wr4NxiJNpWqLQek5al05Ct_acTiKC8482xYvCtFEcJbtsgOXfPJmBKKulsZ4FeLoRnkkLsrvHf6U4LfmXqP89tn78VlgI2SjeqttbBBVHjaJ2dGPNrCiJBgGvdbOqA2U8naASATkaHuGI6b2iH2C8T2Hgm8oeLXnbtrDEEVUFXrCX9pxXsXkG5RiGp27o2JW7UVSFvWdfGNEM5700-I_9KEZ_-IuJm74EZdJ1dYVeM9C3phf2NuSDDmMw4hjGvizayQuboajjFipdDeOR80gbSf0uLyLoWtNQrMRPZvJX5_Uf6jNMwVrauRZsIt7zYfEGPF5iXGXE0E-pBe2UoglIh5fWUTHhuaqkDc6Ddx-fziNH2AnSUqBChZacwVu2aPePcl79gyhH6ERWmFBC1erLQ0t0AVeTSGz037-iQcykkqWXOKn3QMAz0geJ7QJhxgIg_GbpnTWKSAAi_pKZvKv6s32gKXb-f7im3AnmEPwvnU6tNHj28WVVYRnpbrKXY2KtGCiqWF1BuHM7vZjd3LgXb3y0W00?></g></svg>